<svg width="219" height="134" viewBox="0 0 219 134" fill="none" xmlns="http://www.w3.org/2000/svg">
<path d="M5.43938 107.255C7.98398 104.348 25.3251 69.5741 31.887 68.2828C38.449 66.9915 62.504 100.734 67.559 100.333C72.6141 99.9316 103.815 53.7627 107.508 53.0102C110.949 52.5621 137.376 88.9535 143.086 88.7668C148.795 88.58 175 43.6373 180.599 42.9074C186.198 42.1776 205.737 74.9211 210.722 81.7308" stroke="#03A9F4" stroke-width="3" stroke-miterlimit="10"/>
<path d="M4.07575 96.7595C6.62035 93.8527 23.9614 59.0789 30.5234 57.7876C37.0853 56.4963 61.1403 90.2386 66.1954 89.8375C71.2505 89.4363 102.451 43.2674 106.145 42.5149C109.586 42.0668 136.012 78.4582 141.717 78.3061C147.422 78.154 173.631 33.1766 179.23 32.4468C184.83 31.7169 204.388 64.4277 209.358 71.2355" stroke="#03A9F4" stroke-width="3" stroke-miterlimit="10"/>
<path d="M2.7121 86.2642C5.2567 83.3574 22.5978 48.5836 29.1597 47.2923C35.7217 46.001 59.7767 79.7433 64.8318 79.3422C69.8869 78.941 101.088 32.7722 104.781 32.0197C108.222 31.5716 134.649 67.963 140.354 67.8108C146.059 67.6587 172.268 22.6813 177.867 21.9515C183.466 21.2217 203.024 53.9324 207.995 60.7403" stroke="#03A9F4" stroke-width="3" stroke-miterlimit="10"/>
</svg>
