<svg width="205" height="208" viewBox="0 0 205 208" fill="none" xmlns="http://www.w3.org/2000/svg">
<path d="M2.19903 121.021C2.08874 121.524 2.02215 122.037 2 122.552C2.02864 124.658 2.47078 126.739 3.30132 128.675C9.34862 145.394 17.6771 167.577 28.1641 182.412C35.8528 193.379 47.4024 201.035 60.4981 203.846C81.1814 208.668 87.642 197.951 102.86 187.25C120.757 174.666 136.709 174.451 158.403 170.991C178.551 167.776 193.386 155.176 199.111 136.759C205.878 115.019 201.637 83.0375 192.697 62.048C183.756 41.0585 172.274 18.5993 149.508 6.97926C113.776 -11.2392 77.4611 37.92 60.2684 57.1489C52.1543 66.2122 46.9337 77.7556 38.0389 86.2372C32.4049 91.6568 25.3166 95.4229 19.5448 100.812C14.3089 105.742 3.85246 113.718 2.19903 121.021Z" stroke="#03A9F4" stroke-width="4" stroke-miterlimit="10"/>
<path d="M31.8537 126.456C31.9446 127.937 32.3188 129.387 32.956 130.727C37.7938 142.439 44.0708 157.289 51.6184 167.041C57.2811 174.246 65.4247 179.081 74.4604 180.606C88.6983 183.407 93.4137 176.013 104.176 168.572C118.108 158.973 130.769 158.315 146.706 154.977C161.572 151.824 172.289 142.01 176.285 127.022C180.724 110.411 177.341 87.4466 170.268 72.3054C163.195 57.1642 153.887 41.6096 137 33.9242C121.078 26.6062 104.942 36.3584 91.7602 48.7286C83.5237 56.4906 76.3435 65.3549 71.1382 71.2184C65.1827 77.9241 61.1563 86.3137 54.7263 92.6519C50.608 96.7243 45.5405 99.6637 41.4069 103.675C37.2733 107.686 30.0165 113.58 28.7918 118.648C28.2712 121.036 29.9859 124.879 31.8537 126.456Z" stroke="#03A9F4" stroke-width="3.33" stroke-miterlimit="10"/>
<path d="M61.7228 130.375C61.9006 131.205 62.2219 131.997 62.672 132.717C66.331 139.484 70.5258 147.016 75.1493 151.67C78.7797 155.101 83.5112 157.131 88.4993 157.396C96.246 158.192 99.2161 154.074 105.57 149.895C115.521 143.311 124.89 142.24 135.087 138.994C144.64 135.932 151.315 128.936 153.458 117.408C155.402 105.54 153.429 93.363 147.839 82.716C142.512 73.2546 135.485 64.6812 124.508 60.8691C114.311 57.3479 103.947 62.9972 95.3274 70.9275C90.6383 75.4823 86.1924 80.2809 82.008 85.3033C78.2113 89.6206 75.3637 94.8565 71.4138 99.0819C68.7958 101.761 65.7339 103.874 63.2844 106.507C60.3909 109.569 56.1654 113.473 55.3846 116.321C54.466 120.531 57.9413 127.726 61.7228 130.375Z" stroke="#03A9F4" stroke-width="2.67" stroke-miterlimit="10"/>
<path d="M81.9773 113.963C80.6453 120.087 85.8965 130.559 91.5917 134.294C98.9097 139.101 100.364 134.922 106.901 131.232C118.797 124.481 130.31 124.343 130.692 107.747C131.121 89.2378 112.321 81.8433 98.9556 93.0959C92.8471 98.2399 83.0949 111.988 81.9773 113.963Z" stroke="#03A9F4" stroke-width="2" stroke-miterlimit="10"/>
</svg>
